<mxfile host="Electron" agent="Mozilla/5.0 (X11; Linux x86_64) AppleWebKit/537.36 (KHTML, like Gecko) draw.io/28.2.5 Chrome/138.0.7204.251 Electron/37.6.1 Safari/537.36" version="28.2.5">
  <diagram name="Page-1" id="WB-niSWFNtbKNtOw-Sv6">
    <mxGraphModel dx="751" dy="451" grid="0" gridSize="10" guides="1" tooltips="1" connect="1" arrows="1" fold="1" page="1" pageScale="1" pageWidth="850" pageHeight="1100" math="0" shadow="0">
      <root>
        <mxCell id="0" />
        <mxCell id="1" parent="0" />
        <mxCell id="SYBMewa3y3hwb81qPqiJ-1" value="A" style="ellipse;whiteSpace=wrap;html=1;aspect=fixed;" parent="1" vertex="1">
          <mxGeometry x="80" y="480" width="80" height="80" as="geometry" />
        </mxCell>
        <mxCell id="SYBMewa3y3hwb81qPqiJ-2" value="B" style="ellipse;whiteSpace=wrap;html=1;aspect=fixed;" parent="1" vertex="1">
          <mxGeometry x="200" y="480" width="80" height="80" as="geometry" />
        </mxCell>
        <mxCell id="SYBMewa3y3hwb81qPqiJ-3" value="C" style="ellipse;whiteSpace=wrap;html=1;aspect=fixed;" parent="1" vertex="1">
          <mxGeometry x="320" y="480" width="80" height="80" as="geometry" />
        </mxCell>
        <mxCell id="SYBMewa3y3hwb81qPqiJ-4" value="" style="ellipse;whiteSpace=wrap;html=1;aspect=fixed;" parent="1" vertex="1">
          <mxGeometry x="60" y="40" width="360" height="360" as="geometry" />
        </mxCell>
        <mxCell id="SYBMewa3y3hwb81qPqiJ-5" value="a" style="ellipse;whiteSpace=wrap;html=1;aspect=fixed;" parent="1" vertex="1">
          <mxGeometry x="180" y="310" width="40" height="40" as="geometry" />
        </mxCell>
        <mxCell id="SYBMewa3y3hwb81qPqiJ-6" value="b" style="ellipse;whiteSpace=wrap;html=1;aspect=fixed;" parent="1" vertex="1">
          <mxGeometry x="90" y="150" width="40" height="40" as="geometry" />
        </mxCell>
        <mxCell id="SYBMewa3y3hwb81qPqiJ-7" value="c" style="ellipse;whiteSpace=wrap;html=1;aspect=fixed;" parent="1" vertex="1">
          <mxGeometry x="360" y="230" width="40" height="40" as="geometry" />
        </mxCell>
        <mxCell id="SYBMewa3y3hwb81qPqiJ-8" value="d" style="ellipse;whiteSpace=wrap;html=1;aspect=fixed;" parent="1" vertex="1">
          <mxGeometry x="260" y="320" width="40" height="40" as="geometry" />
        </mxCell>
        <mxCell id="SYBMewa3y3hwb81qPqiJ-9" value="e" style="ellipse;whiteSpace=wrap;html=1;aspect=fixed;" parent="1" vertex="1">
          <mxGeometry x="130" y="270" width="40" height="40" as="geometry" />
        </mxCell>
        <mxCell id="SYBMewa3y3hwb81qPqiJ-10" value="f" style="ellipse;whiteSpace=wrap;html=1;aspect=fixed;" parent="1" vertex="1">
          <mxGeometry x="310" y="300" width="40" height="40" as="geometry" />
        </mxCell>
        <mxCell id="SYBMewa3y3hwb81qPqiJ-12" value="" style="endArrow=classic;html=1;rounded=0;exitX=0.5;exitY=1;exitDx=0;exitDy=0;entryX=0.5;entryY=0;entryDx=0;entryDy=0;" parent="1" source="SYBMewa3y3hwb81qPqiJ-6" target="SYBMewa3y3hwb81qPqiJ-1" edge="1">
          <mxGeometry width="50" height="50" relative="1" as="geometry">
            <mxPoint x="220" y="420" as="sourcePoint" />
            <mxPoint x="270" y="370" as="targetPoint" />
          </mxGeometry>
        </mxCell>
        <mxCell id="SYBMewa3y3hwb81qPqiJ-13" value="" style="endArrow=classic;html=1;rounded=0;exitX=0.5;exitY=1;exitDx=0;exitDy=0;entryX=1;entryY=0;entryDx=0;entryDy=0;" parent="1" source="SYBMewa3y3hwb81qPqiJ-9" target="SYBMewa3y3hwb81qPqiJ-1" edge="1">
          <mxGeometry width="50" height="50" relative="1" as="geometry">
            <mxPoint x="220" y="420" as="sourcePoint" />
            <mxPoint x="270" y="370" as="targetPoint" />
          </mxGeometry>
        </mxCell>
        <mxCell id="SYBMewa3y3hwb81qPqiJ-14" value="" style="endArrow=classic;html=1;rounded=0;exitX=0.5;exitY=1;exitDx=0;exitDy=0;entryX=0.5;entryY=0;entryDx=0;entryDy=0;" parent="1" source="SYBMewa3y3hwb81qPqiJ-5" target="SYBMewa3y3hwb81qPqiJ-2" edge="1">
          <mxGeometry width="50" height="50" relative="1" as="geometry">
            <mxPoint x="220" y="420" as="sourcePoint" />
            <mxPoint x="270" y="370" as="targetPoint" />
          </mxGeometry>
        </mxCell>
        <mxCell id="SYBMewa3y3hwb81qPqiJ-16" value="" style="endArrow=classic;html=1;rounded=0;exitX=0.5;exitY=1;exitDx=0;exitDy=0;entryX=0.5;entryY=0;entryDx=0;entryDy=0;" parent="1" source="SYBMewa3y3hwb81qPqiJ-10" target="SYBMewa3y3hwb81qPqiJ-3" edge="1">
          <mxGeometry width="50" height="50" relative="1" as="geometry">
            <mxPoint x="220" y="420" as="sourcePoint" />
            <mxPoint x="270" y="370" as="targetPoint" />
          </mxGeometry>
        </mxCell>
        <mxCell id="SYBMewa3y3hwb81qPqiJ-17" value="" style="endArrow=classic;html=1;rounded=0;exitX=0.5;exitY=1;exitDx=0;exitDy=0;entryX=1;entryY=0;entryDx=0;entryDy=0;" parent="1" source="SYBMewa3y3hwb81qPqiJ-8" target="SYBMewa3y3hwb81qPqiJ-2" edge="1">
          <mxGeometry width="50" height="50" relative="1" as="geometry">
            <mxPoint x="220" y="420" as="sourcePoint" />
            <mxPoint x="270" y="370" as="targetPoint" />
          </mxGeometry>
        </mxCell>
        <mxCell id="SYBMewa3y3hwb81qPqiJ-18" value="" style="endArrow=classic;html=1;rounded=0;exitX=0.5;exitY=1;exitDx=0;exitDy=0;entryX=1;entryY=0;entryDx=0;entryDy=0;" parent="1" source="SYBMewa3y3hwb81qPqiJ-7" target="SYBMewa3y3hwb81qPqiJ-3" edge="1">
          <mxGeometry width="50" height="50" relative="1" as="geometry">
            <mxPoint x="220" y="420" as="sourcePoint" />
            <mxPoint x="270" y="370" as="targetPoint" />
          </mxGeometry>
        </mxCell>
        <mxCell id="SYBMewa3y3hwb81qPqiJ-20" value="" style="endArrow=classic;html=1;rounded=0;exitX=1;exitY=0.5;exitDx=0;exitDy=0;entryX=0;entryY=0;entryDx=0;entryDy=0;" parent="1" source="SYBMewa3y3hwb81qPqiJ-6" target="SYBMewa3y3hwb81qPqiJ-10" edge="1">
          <mxGeometry width="50" height="50" relative="1" as="geometry">
            <mxPoint x="220" y="420" as="sourcePoint" />
            <mxPoint x="270" y="370" as="targetPoint" />
          </mxGeometry>
        </mxCell>
        <mxCell id="SYBMewa3y3hwb81qPqiJ-22" value="" style="endArrow=classic;html=1;rounded=0;exitX=0;exitY=0;exitDx=0;exitDy=0;entryX=1;entryY=0.5;entryDx=0;entryDy=0;" parent="1" source="SYBMewa3y3hwb81qPqiJ-8" target="SYBMewa3y3hwb81qPqiJ-9" edge="1">
          <mxGeometry width="50" height="50" relative="1" as="geometry">
            <mxPoint x="220" y="420" as="sourcePoint" />
            <mxPoint x="270" y="370" as="targetPoint" />
          </mxGeometry>
        </mxCell>
        <mxCell id="SYBMewa3y3hwb81qPqiJ-23" value="GOD COMPONENT" style="text;html=1;align=center;verticalAlign=middle;whiteSpace=wrap;rounded=0;" parent="1" vertex="1">
          <mxGeometry x="150" width="180" height="30" as="geometry" />
        </mxCell>
        <mxCell id="PTfCWzB6b7hoGi_vw-VD-2" value="A" style="ellipse;whiteSpace=wrap;html=1;aspect=fixed;" vertex="1" parent="1">
          <mxGeometry x="668" y="72" width="40" height="40" as="geometry" />
        </mxCell>
        <mxCell id="PTfCWzB6b7hoGi_vw-VD-7" style="edgeStyle=orthogonalEdgeStyle;rounded=0;orthogonalLoop=1;jettySize=auto;html=1;exitX=0.5;exitY=0;exitDx=0;exitDy=0;entryX=0.5;entryY=1;entryDx=0;entryDy=0;endArrow=block;endFill=0;" edge="1" parent="1" source="PTfCWzB6b7hoGi_vw-VD-4" target="PTfCWzB6b7hoGi_vw-VD-2">
          <mxGeometry relative="1" as="geometry" />
        </mxCell>
        <mxCell id="PTfCWzB6b7hoGi_vw-VD-4" value="B" style="ellipse;whiteSpace=wrap;html=1;aspect=fixed;" vertex="1" parent="1">
          <mxGeometry x="668" y="137" width="40" height="40" as="geometry" />
        </mxCell>
        <mxCell id="PTfCWzB6b7hoGi_vw-VD-8" style="edgeStyle=orthogonalEdgeStyle;rounded=0;orthogonalLoop=1;jettySize=auto;html=1;exitX=0.5;exitY=0;exitDx=0;exitDy=0;entryX=0.5;entryY=1;entryDx=0;entryDy=0;endArrow=block;endFill=0;" edge="1" parent="1" source="PTfCWzB6b7hoGi_vw-VD-5" target="PTfCWzB6b7hoGi_vw-VD-4">
          <mxGeometry relative="1" as="geometry" />
        </mxCell>
        <mxCell id="PTfCWzB6b7hoGi_vw-VD-5" value="C2" style="ellipse;whiteSpace=wrap;html=1;aspect=fixed;" vertex="1" parent="1">
          <mxGeometry x="668" y="202" width="40" height="40" as="geometry" />
        </mxCell>
        <mxCell id="PTfCWzB6b7hoGi_vw-VD-9" style="edgeStyle=orthogonalEdgeStyle;rounded=0;orthogonalLoop=1;jettySize=auto;html=1;exitX=0.5;exitY=0;exitDx=0;exitDy=0;entryX=0.5;entryY=1;entryDx=0;entryDy=0;endArrow=block;endFill=0;" edge="1" parent="1" source="PTfCWzB6b7hoGi_vw-VD-6" target="PTfCWzB6b7hoGi_vw-VD-5">
          <mxGeometry relative="1" as="geometry" />
        </mxCell>
        <mxCell id="PTfCWzB6b7hoGi_vw-VD-6" value="D" style="ellipse;whiteSpace=wrap;html=1;aspect=fixed;" vertex="1" parent="1">
          <mxGeometry x="666" y="267" width="40" height="40" as="geometry" />
        </mxCell>
        <mxCell id="PTfCWzB6b7hoGi_vw-VD-15" style="edgeStyle=orthogonalEdgeStyle;rounded=0;orthogonalLoop=1;jettySize=auto;html=1;exitX=0.5;exitY=0;exitDx=0;exitDy=0;entryX=0.5;entryY=1;entryDx=0;entryDy=0;endArrow=block;endFill=0;" edge="1" parent="1" source="PTfCWzB6b7hoGi_vw-VD-11" target="PTfCWzB6b7hoGi_vw-VD-6">
          <mxGeometry relative="1" as="geometry" />
        </mxCell>
        <mxCell id="PTfCWzB6b7hoGi_vw-VD-11" value="E2" style="ellipse;whiteSpace=wrap;html=1;aspect=fixed;" vertex="1" parent="1">
          <mxGeometry x="668" y="332" width="40" height="40" as="geometry" />
        </mxCell>
        <mxCell id="PTfCWzB6b7hoGi_vw-VD-16" style="edgeStyle=orthogonalEdgeStyle;rounded=0;orthogonalLoop=1;jettySize=auto;html=1;exitX=0.5;exitY=0;exitDx=0;exitDy=0;entryX=0.5;entryY=1;entryDx=0;entryDy=0;endArrow=block;endFill=0;" edge="1" parent="1" source="PTfCWzB6b7hoGi_vw-VD-12" target="PTfCWzB6b7hoGi_vw-VD-11">
          <mxGeometry relative="1" as="geometry" />
        </mxCell>
        <mxCell id="PTfCWzB6b7hoGi_vw-VD-12" value="F" style="ellipse;whiteSpace=wrap;html=1;aspect=fixed;" vertex="1" parent="1">
          <mxGeometry x="666" y="397" width="40" height="40" as="geometry" />
        </mxCell>
        <mxCell id="PTfCWzB6b7hoGi_vw-VD-17" style="edgeStyle=orthogonalEdgeStyle;rounded=0;orthogonalLoop=1;jettySize=auto;html=1;exitX=0.5;exitY=0;exitDx=0;exitDy=0;endArrow=block;endFill=0;" edge="1" parent="1" source="PTfCWzB6b7hoGi_vw-VD-13" target="PTfCWzB6b7hoGi_vw-VD-12">
          <mxGeometry relative="1" as="geometry" />
        </mxCell>
        <mxCell id="PTfCWzB6b7hoGi_vw-VD-13" value="G2" style="ellipse;whiteSpace=wrap;html=1;aspect=fixed;" vertex="1" parent="1">
          <mxGeometry x="666" y="462" width="40" height="40" as="geometry" />
        </mxCell>
        <mxCell id="PTfCWzB6b7hoGi_vw-VD-29" style="rounded=0;orthogonalLoop=1;jettySize=auto;html=1;exitX=0;exitY=0;exitDx=0;exitDy=0;entryX=1;entryY=0.5;entryDx=0;entryDy=0;endArrow=block;endFill=0;" edge="1" parent="1" source="PTfCWzB6b7hoGi_vw-VD-18" target="PTfCWzB6b7hoGi_vw-VD-4">
          <mxGeometry relative="1" as="geometry" />
        </mxCell>
        <mxCell id="PTfCWzB6b7hoGi_vw-VD-18" value="C3" style="ellipse;whiteSpace=wrap;html=1;aspect=fixed;" vertex="1" parent="1">
          <mxGeometry x="750" y="202" width="40" height="40" as="geometry" />
        </mxCell>
        <mxCell id="PTfCWzB6b7hoGi_vw-VD-26" style="rounded=0;orthogonalLoop=1;jettySize=auto;html=1;exitX=0;exitY=0;exitDx=0;exitDy=0;entryX=1;entryY=0.5;entryDx=0;entryDy=0;endArrow=block;endFill=0;" edge="1" parent="1" source="PTfCWzB6b7hoGi_vw-VD-19" target="PTfCWzB6b7hoGi_vw-VD-6">
          <mxGeometry relative="1" as="geometry" />
        </mxCell>
        <mxCell id="PTfCWzB6b7hoGi_vw-VD-19" value="E3" style="ellipse;whiteSpace=wrap;html=1;aspect=fixed;" vertex="1" parent="1">
          <mxGeometry x="750" y="332" width="40" height="40" as="geometry" />
        </mxCell>
        <mxCell id="PTfCWzB6b7hoGi_vw-VD-25" style="rounded=0;orthogonalLoop=1;jettySize=auto;html=1;exitX=0;exitY=0;exitDx=0;exitDy=0;entryX=1;entryY=0.5;entryDx=0;entryDy=0;endArrow=block;endFill=0;" edge="1" parent="1" source="PTfCWzB6b7hoGi_vw-VD-20" target="PTfCWzB6b7hoGi_vw-VD-12">
          <mxGeometry relative="1" as="geometry" />
        </mxCell>
        <mxCell id="PTfCWzB6b7hoGi_vw-VD-20" value="G3" style="ellipse;whiteSpace=wrap;html=1;aspect=fixed;" vertex="1" parent="1">
          <mxGeometry x="750" y="462" width="40" height="40" as="geometry" />
        </mxCell>
        <mxCell id="PTfCWzB6b7hoGi_vw-VD-28" style="rounded=0;orthogonalLoop=1;jettySize=auto;html=1;exitX=1;exitY=0;exitDx=0;exitDy=0;entryX=0;entryY=0.5;entryDx=0;entryDy=0;endArrow=block;endFill=0;" edge="1" parent="1" source="PTfCWzB6b7hoGi_vw-VD-21" target="PTfCWzB6b7hoGi_vw-VD-4">
          <mxGeometry relative="1" as="geometry" />
        </mxCell>
        <mxCell id="PTfCWzB6b7hoGi_vw-VD-21" value="C1" style="ellipse;whiteSpace=wrap;html=1;aspect=fixed;" vertex="1" parent="1">
          <mxGeometry x="583" y="202" width="40" height="40" as="geometry" />
        </mxCell>
        <mxCell id="PTfCWzB6b7hoGi_vw-VD-27" style="rounded=0;orthogonalLoop=1;jettySize=auto;html=1;exitX=1;exitY=0;exitDx=0;exitDy=0;entryX=0;entryY=0.5;entryDx=0;entryDy=0;endArrow=block;endFill=0;" edge="1" parent="1" source="PTfCWzB6b7hoGi_vw-VD-22" target="PTfCWzB6b7hoGi_vw-VD-6">
          <mxGeometry relative="1" as="geometry" />
        </mxCell>
        <mxCell id="PTfCWzB6b7hoGi_vw-VD-22" value="E1" style="ellipse;whiteSpace=wrap;html=1;aspect=fixed;" vertex="1" parent="1">
          <mxGeometry x="583" y="332" width="40" height="40" as="geometry" />
        </mxCell>
        <mxCell id="PTfCWzB6b7hoGi_vw-VD-24" style="rounded=0;orthogonalLoop=1;jettySize=auto;html=1;exitX=1;exitY=0;exitDx=0;exitDy=0;entryX=0;entryY=0.5;entryDx=0;entryDy=0;endArrow=block;endFill=0;" edge="1" parent="1" source="PTfCWzB6b7hoGi_vw-VD-23" target="PTfCWzB6b7hoGi_vw-VD-12">
          <mxGeometry relative="1" as="geometry" />
        </mxCell>
        <mxCell id="PTfCWzB6b7hoGi_vw-VD-23" value="G1" style="ellipse;whiteSpace=wrap;html=1;aspect=fixed;" vertex="1" parent="1">
          <mxGeometry x="583" y="462" width="40" height="40" as="geometry" />
        </mxCell>
        <mxCell id="PTfCWzB6b7hoGi_vw-VD-30" value="Deep Hierarchy" style="text;html=1;align=center;verticalAlign=middle;whiteSpace=wrap;rounded=0;" vertex="1" parent="1">
          <mxGeometry x="631.5" width="113" height="30" as="geometry" />
        </mxCell>
        <mxCell id="PTfCWzB6b7hoGi_vw-VD-31" value="A" style="ellipse;whiteSpace=wrap;html=1;aspect=fixed;" vertex="1" parent="1">
          <mxGeometry x="971" y="72" width="40" height="40" as="geometry" />
        </mxCell>
        <mxCell id="PTfCWzB6b7hoGi_vw-VD-32" style="edgeStyle=orthogonalEdgeStyle;rounded=0;orthogonalLoop=1;jettySize=auto;html=1;exitX=0.5;exitY=0;exitDx=0;exitDy=0;entryX=0.5;entryY=1;entryDx=0;entryDy=0;endArrow=block;endFill=0;" edge="1" parent="1" source="PTfCWzB6b7hoGi_vw-VD-33" target="PTfCWzB6b7hoGi_vw-VD-31">
          <mxGeometry relative="1" as="geometry" />
        </mxCell>
        <mxCell id="PTfCWzB6b7hoGi_vw-VD-33" value="B" style="ellipse;whiteSpace=wrap;html=1;aspect=fixed;" vertex="1" parent="1">
          <mxGeometry x="971" y="137" width="40" height="40" as="geometry" />
        </mxCell>
        <mxCell id="PTfCWzB6b7hoGi_vw-VD-34" style="edgeStyle=orthogonalEdgeStyle;rounded=0;orthogonalLoop=1;jettySize=auto;html=1;exitX=0.5;exitY=0;exitDx=0;exitDy=0;entryX=0.5;entryY=1;entryDx=0;entryDy=0;endArrow=block;endFill=0;" edge="1" parent="1" source="PTfCWzB6b7hoGi_vw-VD-35" target="PTfCWzB6b7hoGi_vw-VD-33">
          <mxGeometry relative="1" as="geometry" />
        </mxCell>
        <mxCell id="PTfCWzB6b7hoGi_vw-VD-35" value="C2" style="ellipse;whiteSpace=wrap;html=1;aspect=fixed;" vertex="1" parent="1">
          <mxGeometry x="971" y="202" width="40" height="40" as="geometry" />
        </mxCell>
        <mxCell id="PTfCWzB6b7hoGi_vw-VD-36" style="edgeStyle=orthogonalEdgeStyle;rounded=0;orthogonalLoop=1;jettySize=auto;html=1;exitX=0.5;exitY=0;exitDx=0;exitDy=0;entryX=0.5;entryY=1;entryDx=0;entryDy=0;endArrow=block;endFill=0;" edge="1" parent="1" source="PTfCWzB6b7hoGi_vw-VD-37" target="PTfCWzB6b7hoGi_vw-VD-35">
          <mxGeometry relative="1" as="geometry" />
        </mxCell>
        <mxCell id="PTfCWzB6b7hoGi_vw-VD-37" value="D" style="ellipse;whiteSpace=wrap;html=1;aspect=fixed;" vertex="1" parent="1">
          <mxGeometry x="969" y="267" width="40" height="40" as="geometry" />
        </mxCell>
        <mxCell id="PTfCWzB6b7hoGi_vw-VD-38" style="edgeStyle=orthogonalEdgeStyle;rounded=0;orthogonalLoop=1;jettySize=auto;html=1;exitX=0.5;exitY=0;exitDx=0;exitDy=0;entryX=0.5;entryY=1;entryDx=0;entryDy=0;endArrow=block;endFill=0;" edge="1" parent="1" source="PTfCWzB6b7hoGi_vw-VD-39" target="PTfCWzB6b7hoGi_vw-VD-37">
          <mxGeometry relative="1" as="geometry" />
        </mxCell>
        <mxCell id="PTfCWzB6b7hoGi_vw-VD-39" value="E2" style="ellipse;whiteSpace=wrap;html=1;aspect=fixed;" vertex="1" parent="1">
          <mxGeometry x="971" y="332" width="40" height="40" as="geometry" />
        </mxCell>
        <mxCell id="PTfCWzB6b7hoGi_vw-VD-40" style="edgeStyle=orthogonalEdgeStyle;rounded=0;orthogonalLoop=1;jettySize=auto;html=1;exitX=0.5;exitY=0;exitDx=0;exitDy=0;entryX=0.5;entryY=1;entryDx=0;entryDy=0;endArrow=block;endFill=0;" edge="1" parent="1" source="PTfCWzB6b7hoGi_vw-VD-41" target="PTfCWzB6b7hoGi_vw-VD-39">
          <mxGeometry relative="1" as="geometry" />
        </mxCell>
        <mxCell id="PTfCWzB6b7hoGi_vw-VD-41" value="F" style="ellipse;whiteSpace=wrap;html=1;aspect=fixed;" vertex="1" parent="1">
          <mxGeometry x="969" y="397" width="40" height="40" as="geometry" />
        </mxCell>
        <mxCell id="PTfCWzB6b7hoGi_vw-VD-42" style="edgeStyle=orthogonalEdgeStyle;rounded=0;orthogonalLoop=1;jettySize=auto;html=1;exitX=0.5;exitY=0;exitDx=0;exitDy=0;endArrow=block;endFill=0;" edge="1" parent="1" source="PTfCWzB6b7hoGi_vw-VD-43" target="PTfCWzB6b7hoGi_vw-VD-41">
          <mxGeometry relative="1" as="geometry" />
        </mxCell>
        <mxCell id="PTfCWzB6b7hoGi_vw-VD-43" value="G2" style="ellipse;whiteSpace=wrap;html=1;aspect=fixed;" vertex="1" parent="1">
          <mxGeometry x="969" y="462" width="40" height="40" as="geometry" />
        </mxCell>
        <mxCell id="PTfCWzB6b7hoGi_vw-VD-44" style="rounded=0;orthogonalLoop=1;jettySize=auto;html=1;exitX=0;exitY=0;exitDx=0;exitDy=0;entryX=1;entryY=0.5;entryDx=0;entryDy=0;endArrow=block;endFill=0;" edge="1" parent="1" source="PTfCWzB6b7hoGi_vw-VD-45" target="PTfCWzB6b7hoGi_vw-VD-33">
          <mxGeometry relative="1" as="geometry" />
        </mxCell>
        <mxCell id="PTfCWzB6b7hoGi_vw-VD-45" value="C3" style="ellipse;whiteSpace=wrap;html=1;aspect=fixed;" vertex="1" parent="1">
          <mxGeometry x="1053" y="202" width="40" height="40" as="geometry" />
        </mxCell>
        <mxCell id="PTfCWzB6b7hoGi_vw-VD-46" style="rounded=0;orthogonalLoop=1;jettySize=auto;html=1;exitX=0;exitY=0;exitDx=0;exitDy=0;entryX=1;entryY=0.5;entryDx=0;entryDy=0;endArrow=block;endFill=0;" edge="1" parent="1" source="PTfCWzB6b7hoGi_vw-VD-47" target="PTfCWzB6b7hoGi_vw-VD-37">
          <mxGeometry relative="1" as="geometry" />
        </mxCell>
        <mxCell id="PTfCWzB6b7hoGi_vw-VD-47" value="E3" style="ellipse;whiteSpace=wrap;html=1;aspect=fixed;" vertex="1" parent="1">
          <mxGeometry x="1053" y="332" width="40" height="40" as="geometry" />
        </mxCell>
        <mxCell id="PTfCWzB6b7hoGi_vw-VD-48" style="rounded=0;orthogonalLoop=1;jettySize=auto;html=1;exitX=0;exitY=0;exitDx=0;exitDy=0;entryX=1;entryY=0.5;entryDx=0;entryDy=0;endArrow=block;endFill=0;" edge="1" parent="1" source="PTfCWzB6b7hoGi_vw-VD-49" target="PTfCWzB6b7hoGi_vw-VD-41">
          <mxGeometry relative="1" as="geometry" />
        </mxCell>
        <mxCell id="PTfCWzB6b7hoGi_vw-VD-49" value="G3" style="ellipse;whiteSpace=wrap;html=1;aspect=fixed;" vertex="1" parent="1">
          <mxGeometry x="1053" y="462" width="40" height="40" as="geometry" />
        </mxCell>
        <mxCell id="PTfCWzB6b7hoGi_vw-VD-50" style="rounded=0;orthogonalLoop=1;jettySize=auto;html=1;exitX=1;exitY=0;exitDx=0;exitDy=0;entryX=0;entryY=0.5;entryDx=0;entryDy=0;endArrow=block;endFill=0;" edge="1" parent="1" source="PTfCWzB6b7hoGi_vw-VD-51" target="PTfCWzB6b7hoGi_vw-VD-33">
          <mxGeometry relative="1" as="geometry" />
        </mxCell>
        <mxCell id="PTfCWzB6b7hoGi_vw-VD-51" value="C1" style="ellipse;whiteSpace=wrap;html=1;aspect=fixed;" vertex="1" parent="1">
          <mxGeometry x="886" y="202" width="40" height="40" as="geometry" />
        </mxCell>
        <mxCell id="PTfCWzB6b7hoGi_vw-VD-52" style="rounded=0;orthogonalLoop=1;jettySize=auto;html=1;exitX=1;exitY=0;exitDx=0;exitDy=0;entryX=0;entryY=0.5;entryDx=0;entryDy=0;endArrow=block;endFill=0;" edge="1" parent="1" source="PTfCWzB6b7hoGi_vw-VD-53" target="PTfCWzB6b7hoGi_vw-VD-37">
          <mxGeometry relative="1" as="geometry" />
        </mxCell>
        <mxCell id="PTfCWzB6b7hoGi_vw-VD-53" value="E1" style="ellipse;whiteSpace=wrap;html=1;aspect=fixed;" vertex="1" parent="1">
          <mxGeometry x="886" y="332" width="40" height="40" as="geometry" />
        </mxCell>
        <mxCell id="PTfCWzB6b7hoGi_vw-VD-54" style="rounded=0;orthogonalLoop=1;jettySize=auto;html=1;exitX=1;exitY=0;exitDx=0;exitDy=0;entryX=0;entryY=0.5;entryDx=0;entryDy=0;endArrow=block;endFill=0;" edge="1" parent="1" source="PTfCWzB6b7hoGi_vw-VD-55" target="PTfCWzB6b7hoGi_vw-VD-41">
          <mxGeometry relative="1" as="geometry" />
        </mxCell>
        <mxCell id="PTfCWzB6b7hoGi_vw-VD-55" value="G1" style="ellipse;whiteSpace=wrap;html=1;aspect=fixed;" vertex="1" parent="1">
          <mxGeometry x="886" y="462" width="40" height="40" as="geometry" />
        </mxCell>
        <mxCell id="PTfCWzB6b7hoGi_vw-VD-56" value="Cyclic Hierarchy" style="text;html=1;align=center;verticalAlign=middle;whiteSpace=wrap;rounded=0;" vertex="1" parent="1">
          <mxGeometry x="934.5" width="113" height="30" as="geometry" />
        </mxCell>
        <mxCell id="PTfCWzB6b7hoGi_vw-VD-59" value="" style="endArrow=classic;html=1;rounded=0;exitX=1;exitY=0.5;exitDx=0;exitDy=0;entryX=1;entryY=0;entryDx=0;entryDy=0;edgeStyle=orthogonalEdgeStyle;curved=1;" edge="1" parent="1" source="PTfCWzB6b7hoGi_vw-VD-31" target="PTfCWzB6b7hoGi_vw-VD-41">
          <mxGeometry width="50" height="50" relative="1" as="geometry">
            <mxPoint x="1026" y="316" as="sourcePoint" />
            <mxPoint x="1076" y="266" as="targetPoint" />
            <Array as="points">
              <mxPoint x="1132" y="92" />
              <mxPoint x="1132" y="403" />
            </Array>
          </mxGeometry>
        </mxCell>
        <mxCell id="PTfCWzB6b7hoGi_vw-VD-60" value="A" style="ellipse;whiteSpace=wrap;html=1;aspect=fixed;" vertex="1" parent="1">
          <mxGeometry x="1440" y="290" width="40" height="40" as="geometry" />
        </mxCell>
        <mxCell id="PTfCWzB6b7hoGi_vw-VD-77" style="rounded=0;orthogonalLoop=1;jettySize=auto;html=1;exitX=1;exitY=0.5;exitDx=0;exitDy=0;entryX=0.5;entryY=0;entryDx=0;entryDy=0;endArrow=block;endFill=0;" edge="1" parent="1" source="PTfCWzB6b7hoGi_vw-VD-61" target="PTfCWzB6b7hoGi_vw-VD-72">
          <mxGeometry relative="1" as="geometry" />
        </mxCell>
        <mxCell id="PTfCWzB6b7hoGi_vw-VD-61" value="C1" style="ellipse;whiteSpace=wrap;html=1;aspect=fixed;" vertex="1" parent="1">
          <mxGeometry x="1220" y="72" width="40" height="40" as="geometry" />
        </mxCell>
        <mxCell id="PTfCWzB6b7hoGi_vw-VD-78" style="rounded=0;orthogonalLoop=1;jettySize=auto;html=1;exitX=1;exitY=0.5;exitDx=0;exitDy=0;entryX=0;entryY=0;entryDx=0;entryDy=0;endArrow=block;endFill=0;" edge="1" parent="1" source="PTfCWzB6b7hoGi_vw-VD-62" target="PTfCWzB6b7hoGi_vw-VD-72">
          <mxGeometry relative="1" as="geometry" />
        </mxCell>
        <mxCell id="PTfCWzB6b7hoGi_vw-VD-62" value="C2" style="ellipse;whiteSpace=wrap;html=1;aspect=fixed;" vertex="1" parent="1">
          <mxGeometry x="1220" y="131" width="40" height="40" as="geometry" />
        </mxCell>
        <mxCell id="PTfCWzB6b7hoGi_vw-VD-79" style="rounded=0;orthogonalLoop=1;jettySize=auto;html=1;exitX=1;exitY=0.5;exitDx=0;exitDy=0;entryX=0;entryY=0.5;entryDx=0;entryDy=0;endArrow=block;endFill=0;" edge="1" parent="1" source="PTfCWzB6b7hoGi_vw-VD-63" target="PTfCWzB6b7hoGi_vw-VD-72">
          <mxGeometry relative="1" as="geometry" />
        </mxCell>
        <mxCell id="PTfCWzB6b7hoGi_vw-VD-63" value="C3" style="ellipse;whiteSpace=wrap;html=1;aspect=fixed;" vertex="1" parent="1">
          <mxGeometry x="1220" y="196" width="40" height="40" as="geometry" />
        </mxCell>
        <mxCell id="PTfCWzB6b7hoGi_vw-VD-80" style="rounded=0;orthogonalLoop=1;jettySize=auto;html=1;exitX=1;exitY=0.5;exitDx=0;exitDy=0;entryX=0;entryY=1;entryDx=0;entryDy=0;endArrow=block;endFill=0;" edge="1" parent="1" source="PTfCWzB6b7hoGi_vw-VD-64" target="PTfCWzB6b7hoGi_vw-VD-72">
          <mxGeometry relative="1" as="geometry" />
        </mxCell>
        <mxCell id="PTfCWzB6b7hoGi_vw-VD-64" value="C4" style="ellipse;whiteSpace=wrap;html=1;aspect=fixed;" vertex="1" parent="1">
          <mxGeometry x="1220" y="258" width="40" height="40" as="geometry" />
        </mxCell>
        <mxCell id="PTfCWzB6b7hoGi_vw-VD-81" style="rounded=0;orthogonalLoop=1;jettySize=auto;html=1;exitX=1;exitY=0.5;exitDx=0;exitDy=0;entryX=0;entryY=0;entryDx=0;entryDy=0;endArrow=block;endFill=0;" edge="1" parent="1" source="PTfCWzB6b7hoGi_vw-VD-65" target="PTfCWzB6b7hoGi_vw-VD-73">
          <mxGeometry relative="1" as="geometry" />
        </mxCell>
        <mxCell id="PTfCWzB6b7hoGi_vw-VD-65" value="C5" style="ellipse;whiteSpace=wrap;html=1;aspect=fixed;" vertex="1" parent="1">
          <mxGeometry x="1220" y="320" width="40" height="40" as="geometry" />
        </mxCell>
        <mxCell id="PTfCWzB6b7hoGi_vw-VD-82" style="rounded=0;orthogonalLoop=1;jettySize=auto;html=1;exitX=1;exitY=0.5;exitDx=0;exitDy=0;entryX=0;entryY=0.5;entryDx=0;entryDy=0;endArrow=block;endFill=0;" edge="1" parent="1" source="PTfCWzB6b7hoGi_vw-VD-66" target="PTfCWzB6b7hoGi_vw-VD-73">
          <mxGeometry relative="1" as="geometry" />
        </mxCell>
        <mxCell id="PTfCWzB6b7hoGi_vw-VD-66" value="C6" style="ellipse;whiteSpace=wrap;html=1;aspect=fixed;" vertex="1" parent="1">
          <mxGeometry x="1220" y="382" width="40" height="40" as="geometry" />
        </mxCell>
        <mxCell id="PTfCWzB6b7hoGi_vw-VD-83" style="rounded=0;orthogonalLoop=1;jettySize=auto;html=1;exitX=1;exitY=0.5;exitDx=0;exitDy=0;entryX=0;entryY=1;entryDx=0;entryDy=0;endArrow=block;endFill=0;" edge="1" parent="1" source="PTfCWzB6b7hoGi_vw-VD-67" target="PTfCWzB6b7hoGi_vw-VD-73">
          <mxGeometry relative="1" as="geometry" />
        </mxCell>
        <mxCell id="PTfCWzB6b7hoGi_vw-VD-67" value="C7" style="ellipse;whiteSpace=wrap;html=1;aspect=fixed;" vertex="1" parent="1">
          <mxGeometry x="1220" y="444" width="40" height="40" as="geometry" />
        </mxCell>
        <mxCell id="PTfCWzB6b7hoGi_vw-VD-84" style="rounded=0;orthogonalLoop=1;jettySize=auto;html=1;exitX=1;exitY=0.5;exitDx=0;exitDy=0;entryX=0.5;entryY=1;entryDx=0;entryDy=0;endArrow=block;endFill=0;" edge="1" parent="1" source="PTfCWzB6b7hoGi_vw-VD-68" target="PTfCWzB6b7hoGi_vw-VD-73">
          <mxGeometry relative="1" as="geometry" />
        </mxCell>
        <mxCell id="PTfCWzB6b7hoGi_vw-VD-68" value="C8" style="ellipse;whiteSpace=wrap;html=1;aspect=fixed;" vertex="1" parent="1">
          <mxGeometry x="1220" y="506" width="40" height="40" as="geometry" />
        </mxCell>
        <mxCell id="PTfCWzB6b7hoGi_vw-VD-85" style="rounded=0;orthogonalLoop=1;jettySize=auto;html=1;exitX=1;exitY=0.5;exitDx=0;exitDy=0;entryX=0;entryY=0;entryDx=0;entryDy=0;endArrow=block;endFill=0;" edge="1" parent="1" source="PTfCWzB6b7hoGi_vw-VD-72" target="PTfCWzB6b7hoGi_vw-VD-60">
          <mxGeometry relative="1" as="geometry" />
        </mxCell>
        <mxCell id="PTfCWzB6b7hoGi_vw-VD-72" value="B1" style="ellipse;whiteSpace=wrap;html=1;aspect=fixed;" vertex="1" parent="1">
          <mxGeometry x="1336" y="258" width="40" height="40" as="geometry" />
        </mxCell>
        <mxCell id="PTfCWzB6b7hoGi_vw-VD-73" value="B2" style="ellipse;whiteSpace=wrap;html=1;aspect=fixed;" vertex="1" parent="1">
          <mxGeometry x="1336" y="320" width="40" height="40" as="geometry" />
        </mxCell>
        <mxCell id="PTfCWzB6b7hoGi_vw-VD-86" style="rounded=0;orthogonalLoop=1;jettySize=auto;html=1;exitX=1;exitY=0.5;exitDx=0;exitDy=0;entryX=0.077;entryY=0.686;entryDx=0;entryDy=0;entryPerimeter=0;endArrow=block;endFill=0;" edge="1" parent="1" source="PTfCWzB6b7hoGi_vw-VD-73" target="PTfCWzB6b7hoGi_vw-VD-60">
          <mxGeometry relative="1" as="geometry" />
        </mxCell>
        <mxCell id="PTfCWzB6b7hoGi_vw-VD-87" value="Wide Hierarchy" style="text;html=1;align=center;verticalAlign=middle;whiteSpace=wrap;rounded=0;" vertex="1" parent="1">
          <mxGeometry x="1286" width="132" height="30" as="geometry" />
        </mxCell>
        <mxCell id="PTfCWzB6b7hoGi_vw-VD-109" style="rounded=0;orthogonalLoop=1;jettySize=auto;html=1;exitX=1;exitY=1;exitDx=0;exitDy=0;entryX=0;entryY=0;entryDx=0;entryDy=0;" edge="1" parent="1" source="PTfCWzB6b7hoGi_vw-VD-89" target="PTfCWzB6b7hoGi_vw-VD-92">
          <mxGeometry relative="1" as="geometry" />
        </mxCell>
        <mxCell id="PTfCWzB6b7hoGi_vw-VD-110" style="rounded=0;orthogonalLoop=1;jettySize=auto;html=1;exitX=1;exitY=0;exitDx=0;exitDy=0;entryX=0;entryY=0.5;entryDx=0;entryDy=0;" edge="1" parent="1" source="PTfCWzB6b7hoGi_vw-VD-89" target="PTfCWzB6b7hoGi_vw-VD-91">
          <mxGeometry relative="1" as="geometry" />
        </mxCell>
        <mxCell id="PTfCWzB6b7hoGi_vw-VD-89" value="A" style="ellipse;whiteSpace=wrap;html=1;aspect=fixed;" vertex="1" parent="1">
          <mxGeometry x="1733" y="250" width="40" height="40" as="geometry" />
        </mxCell>
        <mxCell id="PTfCWzB6b7hoGi_vw-VD-90" value="C" style="ellipse;whiteSpace=wrap;html=1;aspect=fixed;" vertex="1" parent="1">
          <mxGeometry x="1844" y="242" width="40" height="40" as="geometry" />
        </mxCell>
        <mxCell id="PTfCWzB6b7hoGi_vw-VD-111" style="rounded=0;orthogonalLoop=1;jettySize=auto;html=1;exitX=1;exitY=1;exitDx=0;exitDy=0;entryX=0.5;entryY=0;entryDx=0;entryDy=0;" edge="1" parent="1" source="PTfCWzB6b7hoGi_vw-VD-91" target="PTfCWzB6b7hoGi_vw-VD-90">
          <mxGeometry relative="1" as="geometry" />
        </mxCell>
        <mxCell id="PTfCWzB6b7hoGi_vw-VD-91" value="B" style="ellipse;whiteSpace=wrap;html=1;aspect=fixed;" vertex="1" parent="1">
          <mxGeometry x="1800" y="156" width="40" height="40" as="geometry" />
        </mxCell>
        <mxCell id="PTfCWzB6b7hoGi_vw-VD-92" value="D" style="ellipse;whiteSpace=wrap;html=1;aspect=fixed;" vertex="1" parent="1">
          <mxGeometry x="1833" y="326" width="40" height="40" as="geometry" />
        </mxCell>
        <mxCell id="PTfCWzB6b7hoGi_vw-VD-101" style="rounded=0;orthogonalLoop=1;jettySize=auto;html=1;exitX=0.5;exitY=0;exitDx=0;exitDy=0;entryX=1;entryY=0.5;entryDx=0;entryDy=0;startArrow=classic;startFill=1;endArrow=none;endFill=0;" edge="1" parent="1" source="PTfCWzB6b7hoGi_vw-VD-93" target="PTfCWzB6b7hoGi_vw-VD-92">
          <mxGeometry relative="1" as="geometry" />
        </mxCell>
        <mxCell id="PTfCWzB6b7hoGi_vw-VD-93" value="E8" style="ellipse;whiteSpace=wrap;html=1;aspect=fixed;" vertex="1" parent="1">
          <mxGeometry x="1903" y="376" width="40" height="40" as="geometry" />
        </mxCell>
        <mxCell id="PTfCWzB6b7hoGi_vw-VD-102" style="rounded=0;orthogonalLoop=1;jettySize=auto;html=1;exitX=0.5;exitY=0;exitDx=0;exitDy=0;entryX=1;entryY=0.5;entryDx=0;entryDy=0;endArrow=none;endFill=0;startArrow=block;startFill=1;" edge="1" parent="1" source="PTfCWzB6b7hoGi_vw-VD-94" target="PTfCWzB6b7hoGi_vw-VD-92">
          <mxGeometry relative="1" as="geometry" />
        </mxCell>
        <mxCell id="PTfCWzB6b7hoGi_vw-VD-94" value="E7" style="ellipse;whiteSpace=wrap;html=1;aspect=fixed;" vertex="1" parent="1">
          <mxGeometry x="1889" y="429" width="40" height="40" as="geometry" />
        </mxCell>
        <mxCell id="PTfCWzB6b7hoGi_vw-VD-103" style="rounded=0;orthogonalLoop=1;jettySize=auto;html=1;exitX=0.5;exitY=0;exitDx=0;exitDy=0;entryX=1;entryY=1;entryDx=0;entryDy=0;startArrow=classic;startFill=1;endArrow=none;endFill=0;" edge="1" parent="1" source="PTfCWzB6b7hoGi_vw-VD-95" target="PTfCWzB6b7hoGi_vw-VD-92">
          <mxGeometry relative="1" as="geometry" />
        </mxCell>
        <mxCell id="PTfCWzB6b7hoGi_vw-VD-95" value="E6" style="ellipse;whiteSpace=wrap;html=1;aspect=fixed;" vertex="1" parent="1">
          <mxGeometry x="1860" y="469" width="40" height="40" as="geometry" />
        </mxCell>
        <mxCell id="PTfCWzB6b7hoGi_vw-VD-104" style="rounded=0;orthogonalLoop=1;jettySize=auto;html=1;exitX=0.5;exitY=0;exitDx=0;exitDy=0;startArrow=classic;startFill=1;endArrow=none;endFill=0;" edge="1" parent="1" source="PTfCWzB6b7hoGi_vw-VD-96" target="PTfCWzB6b7hoGi_vw-VD-92">
          <mxGeometry relative="1" as="geometry" />
        </mxCell>
        <mxCell id="PTfCWzB6b7hoGi_vw-VD-96" value="E5" style="ellipse;whiteSpace=wrap;html=1;aspect=fixed;" vertex="1" parent="1">
          <mxGeometry x="1820" y="494" width="40" height="40" as="geometry" />
        </mxCell>
        <mxCell id="PTfCWzB6b7hoGi_vw-VD-105" style="rounded=0;orthogonalLoop=1;jettySize=auto;html=1;exitX=0.5;exitY=0;exitDx=0;exitDy=0;startArrow=classic;startFill=1;endArrow=none;endFill=0;" edge="1" parent="1" source="PTfCWzB6b7hoGi_vw-VD-97" target="PTfCWzB6b7hoGi_vw-VD-92">
          <mxGeometry relative="1" as="geometry" />
        </mxCell>
        <mxCell id="PTfCWzB6b7hoGi_vw-VD-97" value="E4" style="ellipse;whiteSpace=wrap;html=1;aspect=fixed;" vertex="1" parent="1">
          <mxGeometry x="1773" y="506" width="40" height="40" as="geometry" />
        </mxCell>
        <mxCell id="PTfCWzB6b7hoGi_vw-VD-106" style="rounded=0;orthogonalLoop=1;jettySize=auto;html=1;exitX=1;exitY=0;exitDx=0;exitDy=0;entryX=0;entryY=1;entryDx=0;entryDy=0;startArrow=classic;startFill=1;endArrow=none;endFill=0;" edge="1" parent="1" source="PTfCWzB6b7hoGi_vw-VD-98" target="PTfCWzB6b7hoGi_vw-VD-92">
          <mxGeometry relative="1" as="geometry" />
        </mxCell>
        <mxCell id="PTfCWzB6b7hoGi_vw-VD-98" value="E3" style="ellipse;whiteSpace=wrap;html=1;aspect=fixed;" vertex="1" parent="1">
          <mxGeometry x="1729" y="472" width="40" height="40" as="geometry" />
        </mxCell>
        <mxCell id="PTfCWzB6b7hoGi_vw-VD-107" style="rounded=0;orthogonalLoop=1;jettySize=auto;html=1;exitX=1;exitY=0.5;exitDx=0;exitDy=0;entryX=0;entryY=1;entryDx=0;entryDy=0;startArrow=classic;startFill=1;endArrow=none;endFill=0;" edge="1" parent="1" source="PTfCWzB6b7hoGi_vw-VD-99" target="PTfCWzB6b7hoGi_vw-VD-92">
          <mxGeometry relative="1" as="geometry" />
        </mxCell>
        <mxCell id="PTfCWzB6b7hoGi_vw-VD-99" value="E2" style="ellipse;whiteSpace=wrap;html=1;aspect=fixed;" vertex="1" parent="1">
          <mxGeometry x="1719" y="414" width="40" height="40" as="geometry" />
        </mxCell>
        <mxCell id="PTfCWzB6b7hoGi_vw-VD-108" style="rounded=0;orthogonalLoop=1;jettySize=auto;html=1;exitX=1;exitY=0;exitDx=0;exitDy=0;entryX=0;entryY=0.5;entryDx=0;entryDy=0;startArrow=classic;startFill=1;endArrow=none;endFill=0;" edge="1" parent="1" source="PTfCWzB6b7hoGi_vw-VD-100" target="PTfCWzB6b7hoGi_vw-VD-92">
          <mxGeometry relative="1" as="geometry" />
        </mxCell>
        <mxCell id="PTfCWzB6b7hoGi_vw-VD-100" value="E1" style="ellipse;whiteSpace=wrap;html=1;aspect=fixed;" vertex="1" parent="1">
          <mxGeometry x="1745" y="372" width="40" height="40" as="geometry" />
        </mxCell>
        <mxCell id="PTfCWzB6b7hoGi_vw-VD-112" value="Unstable Dependency" style="text;html=1;align=center;verticalAlign=middle;whiteSpace=wrap;rounded=0;" vertex="1" parent="1">
          <mxGeometry x="1747" width="146" height="30" as="geometry" />
        </mxCell>
        <mxCell id="PTfCWzB6b7hoGi_vw-VD-146" style="rounded=0;orthogonalLoop=1;jettySize=auto;html=1;exitX=1;exitY=0;exitDx=0;exitDy=0;entryX=0;entryY=0.5;entryDx=0;entryDy=0;fillColor=#f8cecc;strokeColor=#b85450;" edge="1" parent="1" source="PTfCWzB6b7hoGi_vw-VD-136" target="PTfCWzB6b7hoGi_vw-VD-137">
          <mxGeometry relative="1" as="geometry" />
        </mxCell>
        <mxCell id="PTfCWzB6b7hoGi_vw-VD-149" style="rounded=0;orthogonalLoop=1;jettySize=auto;html=1;exitX=0.5;exitY=1;exitDx=0;exitDy=0;entryX=0.5;entryY=0;entryDx=0;entryDy=0;" edge="1" parent="1" source="PTfCWzB6b7hoGi_vw-VD-136" target="PTfCWzB6b7hoGi_vw-VD-139">
          <mxGeometry relative="1" as="geometry" />
        </mxCell>
        <mxCell id="PTfCWzB6b7hoGi_vw-VD-136" value="A" style="ellipse;whiteSpace=wrap;html=1;aspect=fixed;" vertex="1" parent="1">
          <mxGeometry x="2063" y="187" width="40" height="40" as="geometry" />
        </mxCell>
        <mxCell id="PTfCWzB6b7hoGi_vw-VD-147" style="rounded=0;orthogonalLoop=1;jettySize=auto;html=1;exitX=1;exitY=1;exitDx=0;exitDy=0;entryX=0.5;entryY=0;entryDx=0;entryDy=0;fillColor=#f8cecc;strokeColor=#b85450;" edge="1" parent="1" source="PTfCWzB6b7hoGi_vw-VD-137" target="PTfCWzB6b7hoGi_vw-VD-138">
          <mxGeometry relative="1" as="geometry" />
        </mxCell>
        <mxCell id="PTfCWzB6b7hoGi_vw-VD-137" value="B" style="ellipse;whiteSpace=wrap;html=1;aspect=fixed;" vertex="1" parent="1">
          <mxGeometry x="2134" y="145" width="40" height="40" as="geometry" />
        </mxCell>
        <mxCell id="PTfCWzB6b7hoGi_vw-VD-160" style="rounded=0;orthogonalLoop=1;jettySize=auto;html=1;exitX=0;exitY=0;exitDx=0;exitDy=0;entryX=1;entryY=0.5;entryDx=0;entryDy=0;fillColor=#f8cecc;strokeColor=#b85450;" edge="1" parent="1" source="PTfCWzB6b7hoGi_vw-VD-138" target="PTfCWzB6b7hoGi_vw-VD-136">
          <mxGeometry relative="1" as="geometry" />
        </mxCell>
        <mxCell id="PTfCWzB6b7hoGi_vw-VD-138" value="C" style="ellipse;whiteSpace=wrap;html=1;aspect=fixed;" vertex="1" parent="1">
          <mxGeometry x="2171" y="208" width="40" height="40" as="geometry" />
        </mxCell>
        <mxCell id="PTfCWzB6b7hoGi_vw-VD-151" style="rounded=0;orthogonalLoop=1;jettySize=auto;html=1;exitX=1;exitY=1;exitDx=0;exitDy=0;entryX=0;entryY=0.5;entryDx=0;entryDy=0;fillColor=#f8cecc;strokeColor=#b85450;" edge="1" parent="1" source="PTfCWzB6b7hoGi_vw-VD-139" target="PTfCWzB6b7hoGi_vw-VD-145">
          <mxGeometry relative="1" as="geometry" />
        </mxCell>
        <mxCell id="PTfCWzB6b7hoGi_vw-VD-139" value="J" style="ellipse;whiteSpace=wrap;html=1;aspect=fixed;" vertex="1" parent="1">
          <mxGeometry x="2070" y="260" width="40" height="40" as="geometry" />
        </mxCell>
        <mxCell id="PTfCWzB6b7hoGi_vw-VD-157" style="rounded=0;orthogonalLoop=1;jettySize=auto;html=1;exitX=1;exitY=0.5;exitDx=0;exitDy=0;entryX=0;entryY=0.5;entryDx=0;entryDy=0;" edge="1" parent="1" source="PTfCWzB6b7hoGi_vw-VD-140" target="PTfCWzB6b7hoGi_vw-VD-144">
          <mxGeometry relative="1" as="geometry" />
        </mxCell>
        <mxCell id="PTfCWzB6b7hoGi_vw-VD-158" style="rounded=0;orthogonalLoop=1;jettySize=auto;html=1;exitX=0.5;exitY=0;exitDx=0;exitDy=0;entryX=0.5;entryY=1;entryDx=0;entryDy=0;fillColor=#f8cecc;strokeColor=#b85450;" edge="1" parent="1" source="PTfCWzB6b7hoGi_vw-VD-140" target="PTfCWzB6b7hoGi_vw-VD-139">
          <mxGeometry relative="1" as="geometry" />
        </mxCell>
        <mxCell id="PTfCWzB6b7hoGi_vw-VD-140" value="I" style="ellipse;whiteSpace=wrap;html=1;aspect=fixed;" vertex="1" parent="1">
          <mxGeometry x="2057" y="342" width="40" height="40" as="geometry" />
        </mxCell>
        <mxCell id="PTfCWzB6b7hoGi_vw-VD-156" style="rounded=0;orthogonalLoop=1;jettySize=auto;html=1;exitX=0.5;exitY=0;exitDx=0;exitDy=0;entryX=0.5;entryY=1;entryDx=0;entryDy=0;fillColor=#f8cecc;strokeColor=#b85450;" edge="1" parent="1" source="PTfCWzB6b7hoGi_vw-VD-141" target="PTfCWzB6b7hoGi_vw-VD-140">
          <mxGeometry relative="1" as="geometry" />
        </mxCell>
        <mxCell id="PTfCWzB6b7hoGi_vw-VD-141" value="H" style="ellipse;whiteSpace=wrap;html=1;aspect=fixed;" vertex="1" parent="1">
          <mxGeometry x="2048" y="416" width="40" height="40" as="geometry" />
        </mxCell>
        <mxCell id="PTfCWzB6b7hoGi_vw-VD-155" style="rounded=0;orthogonalLoop=1;jettySize=auto;html=1;exitX=0;exitY=0;exitDx=0;exitDy=0;entryX=0.5;entryY=1;entryDx=0;entryDy=0;fillColor=#f8cecc;strokeColor=#b85450;" edge="1" parent="1" source="PTfCWzB6b7hoGi_vw-VD-142" target="PTfCWzB6b7hoGi_vw-VD-141">
          <mxGeometry relative="1" as="geometry" />
        </mxCell>
        <mxCell id="PTfCWzB6b7hoGi_vw-VD-142" value="G" style="ellipse;whiteSpace=wrap;html=1;aspect=fixed;" vertex="1" parent="1">
          <mxGeometry x="2097" y="480" width="40" height="40" as="geometry" />
        </mxCell>
        <mxCell id="PTfCWzB6b7hoGi_vw-VD-153" style="rounded=0;orthogonalLoop=1;jettySize=auto;html=1;exitX=0;exitY=1;exitDx=0;exitDy=0;entryX=1;entryY=0;entryDx=0;entryDy=0;fillColor=#f8cecc;strokeColor=#b85450;" edge="1" parent="1" source="PTfCWzB6b7hoGi_vw-VD-143" target="PTfCWzB6b7hoGi_vw-VD-142">
          <mxGeometry relative="1" as="geometry" />
        </mxCell>
        <mxCell id="PTfCWzB6b7hoGi_vw-VD-154" style="rounded=0;orthogonalLoop=1;jettySize=auto;html=1;exitX=0;exitY=0.5;exitDx=0;exitDy=0;entryX=1;entryY=0.5;entryDx=0;entryDy=0;" edge="1" parent="1" source="PTfCWzB6b7hoGi_vw-VD-143" target="PTfCWzB6b7hoGi_vw-VD-141">
          <mxGeometry relative="1" as="geometry" />
        </mxCell>
        <mxCell id="PTfCWzB6b7hoGi_vw-VD-143" value="F" style="ellipse;whiteSpace=wrap;html=1;aspect=fixed;" vertex="1" parent="1">
          <mxGeometry x="2140" y="404" width="40" height="40" as="geometry" />
        </mxCell>
        <mxCell id="PTfCWzB6b7hoGi_vw-VD-152" style="rounded=0;orthogonalLoop=1;jettySize=auto;html=1;exitX=0.5;exitY=1;exitDx=0;exitDy=0;entryX=0.5;entryY=0;entryDx=0;entryDy=0;fillColor=#f8cecc;strokeColor=#b85450;" edge="1" parent="1" source="PTfCWzB6b7hoGi_vw-VD-144" target="PTfCWzB6b7hoGi_vw-VD-143">
          <mxGeometry relative="1" as="geometry" />
        </mxCell>
        <mxCell id="PTfCWzB6b7hoGi_vw-VD-144" value="E" style="ellipse;whiteSpace=wrap;html=1;aspect=fixed;" vertex="1" parent="1">
          <mxGeometry x="2140" y="326" width="40" height="40" as="geometry" />
        </mxCell>
        <mxCell id="PTfCWzB6b7hoGi_vw-VD-150" style="rounded=0;orthogonalLoop=1;jettySize=auto;html=1;exitX=0.5;exitY=1;exitDx=0;exitDy=0;entryX=1;entryY=0;entryDx=0;entryDy=0;fillColor=#f8cecc;strokeColor=#b85450;" edge="1" parent="1" source="PTfCWzB6b7hoGi_vw-VD-145" target="PTfCWzB6b7hoGi_vw-VD-144">
          <mxGeometry relative="1" as="geometry" />
        </mxCell>
        <mxCell id="PTfCWzB6b7hoGi_vw-VD-159" style="rounded=0;orthogonalLoop=1;jettySize=auto;html=1;exitX=1;exitY=0;exitDx=0;exitDy=0;entryX=1;entryY=1;entryDx=0;entryDy=0;fillColor=#f8cecc;strokeColor=#b85450;" edge="1" parent="1" source="PTfCWzB6b7hoGi_vw-VD-145" target="PTfCWzB6b7hoGi_vw-VD-138">
          <mxGeometry relative="1" as="geometry" />
        </mxCell>
        <mxCell id="PTfCWzB6b7hoGi_vw-VD-145" value="D" style="ellipse;whiteSpace=wrap;html=1;aspect=fixed;" vertex="1" parent="1">
          <mxGeometry x="2166" y="264" width="40" height="40" as="geometry" />
        </mxCell>
        <mxCell id="PTfCWzB6b7hoGi_vw-VD-148" style="rounded=0;orthogonalLoop=1;jettySize=auto;html=1;exitX=0;exitY=0.5;exitDx=0;exitDy=0;entryX=0.988;entryY=0.409;entryDx=0;entryDy=0;entryPerimeter=0;fillColor=#f8cecc;strokeColor=#b85450;" edge="1" parent="1" source="PTfCWzB6b7hoGi_vw-VD-138" target="PTfCWzB6b7hoGi_vw-VD-139">
          <mxGeometry relative="1" as="geometry" />
        </mxCell>
        <mxCell id="PTfCWzB6b7hoGi_vw-VD-161" value="Cyclic Dependency" style="text;html=1;align=center;verticalAlign=middle;whiteSpace=wrap;rounded=0;" vertex="1" parent="1">
          <mxGeometry x="2091" y="6" width="123" height="30" as="geometry" />
        </mxCell>
        <mxCell id="PTfCWzB6b7hoGi_vw-VD-178" style="rounded=0;orthogonalLoop=1;jettySize=auto;html=1;exitX=0.5;exitY=1;exitDx=0;exitDy=0;entryX=0;entryY=0.5;entryDx=0;entryDy=0;" edge="1" parent="1" source="PTfCWzB6b7hoGi_vw-VD-162" target="PTfCWzB6b7hoGi_vw-VD-172">
          <mxGeometry relative="1" as="geometry" />
        </mxCell>
        <mxCell id="PTfCWzB6b7hoGi_vw-VD-179" style="rounded=0;orthogonalLoop=1;jettySize=auto;html=1;exitX=1;exitY=1;exitDx=0;exitDy=0;entryX=0;entryY=0.5;entryDx=0;entryDy=0;" edge="1" parent="1" source="PTfCWzB6b7hoGi_vw-VD-162" target="PTfCWzB6b7hoGi_vw-VD-171">
          <mxGeometry relative="1" as="geometry" />
        </mxCell>
        <mxCell id="PTfCWzB6b7hoGi_vw-VD-180" style="rounded=0;orthogonalLoop=1;jettySize=auto;html=1;exitX=1;exitY=0.5;exitDx=0;exitDy=0;" edge="1" parent="1" source="PTfCWzB6b7hoGi_vw-VD-162" target="PTfCWzB6b7hoGi_vw-VD-170">
          <mxGeometry relative="1" as="geometry" />
        </mxCell>
        <mxCell id="PTfCWzB6b7hoGi_vw-VD-181" style="rounded=0;orthogonalLoop=1;jettySize=auto;html=1;exitX=1;exitY=0;exitDx=0;exitDy=0;entryX=0;entryY=0.5;entryDx=0;entryDy=0;" edge="1" parent="1" source="PTfCWzB6b7hoGi_vw-VD-162" target="PTfCWzB6b7hoGi_vw-VD-169">
          <mxGeometry relative="1" as="geometry" />
        </mxCell>
        <mxCell id="PTfCWzB6b7hoGi_vw-VD-182" style="rounded=0;orthogonalLoop=1;jettySize=auto;html=1;exitX=0.5;exitY=0;exitDx=0;exitDy=0;entryX=0;entryY=0.5;entryDx=0;entryDy=0;" edge="1" parent="1" source="PTfCWzB6b7hoGi_vw-VD-162" target="PTfCWzB6b7hoGi_vw-VD-168">
          <mxGeometry relative="1" as="geometry" />
        </mxCell>
        <mxCell id="PTfCWzB6b7hoGi_vw-VD-162" value="A" style="ellipse;whiteSpace=wrap;html=1;aspect=fixed;" vertex="1" parent="1">
          <mxGeometry x="2750" y="320" width="40" height="40" as="geometry" />
        </mxCell>
        <mxCell id="PTfCWzB6b7hoGi_vw-VD-173" style="rounded=0;orthogonalLoop=1;jettySize=auto;html=1;exitX=1;exitY=0.5;exitDx=0;exitDy=0;entryX=0.5;entryY=0;entryDx=0;entryDy=0;" edge="1" parent="1" source="PTfCWzB6b7hoGi_vw-VD-163" target="PTfCWzB6b7hoGi_vw-VD-162">
          <mxGeometry relative="1" as="geometry" />
        </mxCell>
        <mxCell id="PTfCWzB6b7hoGi_vw-VD-163" value="B1" style="ellipse;whiteSpace=wrap;html=1;aspect=fixed;" vertex="1" parent="1">
          <mxGeometry x="2666" y="160" width="40" height="40" as="geometry" />
        </mxCell>
        <mxCell id="PTfCWzB6b7hoGi_vw-VD-174" style="rounded=0;orthogonalLoop=1;jettySize=auto;html=1;exitX=1;exitY=0.5;exitDx=0;exitDy=0;entryX=0;entryY=0;entryDx=0;entryDy=0;" edge="1" parent="1" source="PTfCWzB6b7hoGi_vw-VD-164" target="PTfCWzB6b7hoGi_vw-VD-162">
          <mxGeometry relative="1" as="geometry" />
        </mxCell>
        <mxCell id="PTfCWzB6b7hoGi_vw-VD-164" value="B2" style="ellipse;whiteSpace=wrap;html=1;aspect=fixed;" vertex="1" parent="1">
          <mxGeometry x="2666" y="240" width="40" height="40" as="geometry" />
        </mxCell>
        <mxCell id="PTfCWzB6b7hoGi_vw-VD-175" style="rounded=0;orthogonalLoop=1;jettySize=auto;html=1;exitX=1;exitY=0.5;exitDx=0;exitDy=0;entryX=0;entryY=0.5;entryDx=0;entryDy=0;" edge="1" parent="1" source="PTfCWzB6b7hoGi_vw-VD-165" target="PTfCWzB6b7hoGi_vw-VD-162">
          <mxGeometry relative="1" as="geometry" />
        </mxCell>
        <mxCell id="PTfCWzB6b7hoGi_vw-VD-165" value="B3" style="ellipse;whiteSpace=wrap;html=1;aspect=fixed;" vertex="1" parent="1">
          <mxGeometry x="2666" y="320" width="40" height="40" as="geometry" />
        </mxCell>
        <mxCell id="PTfCWzB6b7hoGi_vw-VD-176" style="rounded=0;orthogonalLoop=1;jettySize=auto;html=1;exitX=1;exitY=0;exitDx=0;exitDy=0;entryX=0;entryY=1;entryDx=0;entryDy=0;" edge="1" parent="1" source="PTfCWzB6b7hoGi_vw-VD-166" target="PTfCWzB6b7hoGi_vw-VD-162">
          <mxGeometry relative="1" as="geometry" />
        </mxCell>
        <mxCell id="PTfCWzB6b7hoGi_vw-VD-166" value="B4" style="ellipse;whiteSpace=wrap;html=1;aspect=fixed;" vertex="1" parent="1">
          <mxGeometry x="2666" y="400" width="40" height="40" as="geometry" />
        </mxCell>
        <mxCell id="PTfCWzB6b7hoGi_vw-VD-177" style="rounded=0;orthogonalLoop=1;jettySize=auto;html=1;exitX=1;exitY=0.5;exitDx=0;exitDy=0;entryX=0.5;entryY=1;entryDx=0;entryDy=0;" edge="1" parent="1" source="PTfCWzB6b7hoGi_vw-VD-167" target="PTfCWzB6b7hoGi_vw-VD-162">
          <mxGeometry relative="1" as="geometry" />
        </mxCell>
        <mxCell id="PTfCWzB6b7hoGi_vw-VD-167" value="B5" style="ellipse;whiteSpace=wrap;html=1;aspect=fixed;" vertex="1" parent="1">
          <mxGeometry x="2666" y="480" width="40" height="40" as="geometry" />
        </mxCell>
        <mxCell id="PTfCWzB6b7hoGi_vw-VD-168" value="C1" style="ellipse;whiteSpace=wrap;html=1;aspect=fixed;" vertex="1" parent="1">
          <mxGeometry x="2835" y="160" width="40" height="40" as="geometry" />
        </mxCell>
        <mxCell id="PTfCWzB6b7hoGi_vw-VD-169" value="C2" style="ellipse;whiteSpace=wrap;html=1;aspect=fixed;" vertex="1" parent="1">
          <mxGeometry x="2835" y="240" width="40" height="40" as="geometry" />
        </mxCell>
        <mxCell id="PTfCWzB6b7hoGi_vw-VD-170" value="C3" style="ellipse;whiteSpace=wrap;html=1;aspect=fixed;" vertex="1" parent="1">
          <mxGeometry x="2835" y="320" width="40" height="40" as="geometry" />
        </mxCell>
        <mxCell id="PTfCWzB6b7hoGi_vw-VD-171" value="C4" style="ellipse;whiteSpace=wrap;html=1;aspect=fixed;" vertex="1" parent="1">
          <mxGeometry x="2835" y="400" width="40" height="40" as="geometry" />
        </mxCell>
        <mxCell id="PTfCWzB6b7hoGi_vw-VD-172" value="C5" style="ellipse;whiteSpace=wrap;html=1;aspect=fixed;" vertex="1" parent="1">
          <mxGeometry x="2835" y="480" width="40" height="40" as="geometry" />
        </mxCell>
        <mxCell id="PTfCWzB6b7hoGi_vw-VD-183" value="Hub Like Dependency" style="text;html=1;align=center;verticalAlign=middle;whiteSpace=wrap;rounded=0;" vertex="1" parent="1">
          <mxGeometry x="2715" width="122" height="30" as="geometry" />
        </mxCell>
      </root>
    </mxGraphModel>
  </diagram>
</mxfile>
